<svg width="990" height="182" viewBox="0 0 990 182" fill="none" xmlns="http://www.w3.org/2000/svg">
<path d="M0 0H990V182H0V0Z" fill="url(#paint0_linear_1_348)" fill-opacity="0.2"/>
<path d="M291.143 59.5124V71.8096H296.712V44.7327H291.111V54.8696H280.418V44.7327H274.849V71.8096H280.418V59.5124H291.143Z" fill="white"/>
<path d="M310.448 51.4197C304.699 51.4197 301.167 55.5789 301.167 62.2981C301.167 68.7272 304.66 72.6607 310.339 72.6607C314.831 72.6607 318.473 70.1007 319.62 66.1607H314.496C313.864 67.76 312.42 68.6885 310.526 68.6885C307.032 68.6885 306.478 66.1285 306.368 63.4137H319.807C319.845 62.9688 319.845 62.7818 319.845 62.5238C319.845 53.6444 314.457 51.4197 310.448 51.4197ZM314.425 59.9638H306.439C306.774 56.9137 308.076 55.3919 310.377 55.3919C312.788 55.3919 314.199 57.0298 314.425 59.9638Z" fill="white"/>
<path d="M329.159 72.7768C329.159 74.6727 327.748 76.1171 325.93 76.1171C325.524 76.1171 325.228 76.0784 324.558 75.8979V79.7927C325.337 79.9088 325.782 79.941 326.414 79.941C332.092 79.941 332.614 76.8587 333.098 75.4852L341.341 51.755H335.991L331.834 66.3478L327.419 51.755H321.702L329.159 72.6285V72.7768Z" fill="white"/>
<path d="M366.919 49.3755H374.828V44.7327H353.146V49.3755H361.351V71.8096H366.919V49.3755Z" fill="white"/>
<path d="M390.751 59.5511V71.8096H395.952V58.3646C395.952 52.7932 392.272 51.4197 389.416 51.4197C386.851 51.4197 384.995 52.4579 383.551 54.6503V44.7327H378.35V71.8096H383.551V59.7768C383.551 57.4747 385.22 55.8368 387.56 55.8368C389.971 55.8368 390.751 57.3973 390.751 59.5511Z" fill="white"/>
<path d="M409.126 51.4197C403.377 51.4197 399.845 55.5789 399.845 62.2981C399.845 68.7272 403.338 72.6607 409.017 72.6607C413.509 72.6607 417.151 70.1007 418.298 66.1607H413.174C412.542 67.76 411.099 68.6885 409.204 68.6885C405.71 68.6885 405.156 66.1285 405.046 63.4137H418.485C418.524 62.9688 418.524 62.7818 418.524 62.5238C418.524 53.6444 413.135 51.4197 409.126 51.4197ZM413.103 59.9638H405.117C405.453 56.9137 406.754 55.3919 409.055 55.3919C411.466 55.3919 412.878 57.0298 413.103 59.9638Z" fill="white"/>
<path d="M422.417 51.755V71.8096H427.618V61.1503C427.618 58.1067 429.14 56.5784 432.182 56.5784C432.743 56.5784 433.11 56.6171 433.819 56.7267V51.4584C433.522 51.4197 433.335 51.4197 433.187 51.4197C430.809 51.4197 428.734 52.9802 427.618 55.6885V51.755H422.417Z" fill="white"/>
<path d="M445.323 51.4197C439.574 51.4197 436.042 55.5789 436.042 62.2981C436.042 68.7272 439.535 72.6607 445.214 72.6607C449.706 72.6607 453.348 70.1007 454.495 66.1607H449.371C448.739 67.76 447.296 68.6885 445.401 68.6885C441.907 68.6885 441.353 66.1285 441.243 63.4137H454.682C454.721 62.9688 454.721 62.7818 454.721 62.5238C454.721 53.6444 449.332 51.4197 445.323 51.4197ZM449.3 59.9638H441.314C441.649 56.9137 442.951 55.3919 445.252 55.3919C447.663 55.3919 449.074 57.0298 449.3 59.9638Z" fill="white"/>
<path d="M465.929 44.8423H460.361V52.6449L461.882 64.123H464.37L465.929 52.6449V44.8423ZM465.929 66.3864H460.361V71.8095H465.929V66.3864Z" fill="white"/>
<path d="M487.427 44.7327H481.858V71.8096H487.427V44.7327Z" fill="white"/>
<path d="M497.595 44.7327H492.477V49.5625L493.96 54.3537H496.042L497.595 49.5625V44.7327Z" fill="white"/>
<path d="M502.087 51.755V71.8096H507.289V59.7768C507.289 57.3264 508.623 55.8368 510.853 55.8368C512.593 55.8368 513.676 56.8428 513.676 58.4356V71.8096H518.871V59.7768C518.871 57.3264 520.205 55.8368 522.435 55.8368C524.182 55.8368 525.258 56.8428 525.258 58.4356V71.8096H530.453V57.623C530.453 53.7218 528.075 51.4197 524.066 51.4197C521.546 51.4197 519.76 52.3096 518.201 54.3924C517.234 52.4966 515.229 51.4197 512.748 51.4197C510.44 51.4197 508.958 52.1999 507.25 54.2441V51.755H502.087Z" fill="white"/>
<path d="M551.727 44.7327H546.159V71.8096H564.682V67.1667H551.727V44.7327Z" fill="white"/>
<path d="M586.509 71.8096V51.755H581.314V64.3036C581.314 66.6831 579.645 68.2436 577.118 68.2436C574.895 68.2436 573.779 67.0571 573.779 64.6389V51.755H568.578V65.7158C568.578 70.1394 571.034 72.6608 575.301 72.6608C578.008 72.6608 579.832 71.6613 581.314 69.4301V71.8096H586.509Z" fill="white"/>
<path d="M596.498 72.6607C598.728 72.6607 600.765 71.6999 602.589 69.8041C602.589 70.8423 602.699 71.2163 603.182 71.8096H608.822V71.1776C607.894 70.3264 607.636 69.7654 607.636 68.7272V57.5844C607.636 53.4961 604.852 51.4197 599.431 51.4197C594.011 51.4197 591.187 53.7218 590.859 58.3646H595.867C596.125 56.2818 596.982 55.6176 599.541 55.6176C601.545 55.6176 602.551 56.2818 602.551 57.623C602.551 59.5898 600.101 59.6994 598.393 59.9638L596.311 60.3314C592.341 61.002 590.408 63.0462 590.408 66.6444C590.408 70.249 592.863 72.6607 596.498 72.6607ZM602.551 63.749C602.551 66.7604 601.068 68.4693 598.432 68.4693C596.685 68.4693 595.609 67.5407 595.609 66.0511C595.609 64.4906 596.428 63.749 598.58 63.3041L600.359 62.9688C601.732 62.7108 601.958 62.6335 602.551 62.3368V63.749Z" fill="white"/>
<path d="M612.348 51.755V71.8096H617.55V59.7768C617.55 57.3974 619.219 55.8368 621.746 55.8368C623.969 55.8368 625.084 57.062 625.084 59.4415V71.8096H630.279V58.3646C630.279 53.941 627.83 51.4197 623.563 51.4197C620.85 51.4197 619.032 52.4192 617.55 54.6503V51.755H612.348Z" fill="white"/>
<path d="M642.608 72.6607C645.096 72.6607 646.843 71.7322 648.138 69.7654V71.8096H653.34V44.7327H648.138V54.3537C646.843 52.3482 645.096 51.4197 642.608 51.4197C637.819 51.4197 634.178 56.0238 634.178 62.0789C634.178 67.947 637.562 72.6607 642.608 72.6607ZM643.756 55.7659C646.392 55.7659 648.138 58.3259 648.138 62.1498C648.138 65.7932 646.36 68.321 643.756 68.321C641.158 68.321 639.379 65.7545 639.379 62.0789C639.379 58.3646 641.158 55.7659 643.756 55.7659Z" fill="white"/>
<path d="M666.514 51.4197C660.765 51.4197 657.233 55.5789 657.233 62.2981C657.233 68.7272 660.726 72.6607 666.404 72.6607C670.897 72.6607 674.538 70.1007 675.685 66.1607H670.561C669.93 67.76 668.486 68.6885 666.591 68.6885C663.098 68.6885 662.543 66.1285 662.434 63.4137H675.872C675.911 62.9688 675.911 62.7818 675.911 62.5238C675.911 53.6444 670.523 51.4197 666.514 51.4197ZM670.491 59.9638H662.505C662.84 56.9137 664.142 55.3919 666.443 55.3919C668.853 55.3919 670.265 57.0298 670.491 59.9638Z" fill="white"/>
<path d="M679.805 51.755V71.8096H685.006V61.1503C685.006 58.1067 686.527 56.5784 689.569 56.5784C690.13 56.5784 690.497 56.6171 691.206 56.7267V51.4584C690.91 51.4197 690.723 51.4197 690.575 51.4197C688.196 51.4197 686.121 52.9802 685.006 55.6885V51.755H679.805Z" fill="white"/>
<path d="M698.147 65.9802H693.062C693.21 70.3587 696.439 72.6607 702.53 72.6607C709.543 72.6607 711.289 68.6498 711.289 65.8641C711.289 63.2654 709.987 61.5953 707.351 60.815L700.784 58.9192C699.333 58.4742 698.966 58.1776 698.966 57.3587C698.966 56.2495 700.152 55.5015 701.969 55.5015C704.457 55.5015 705.682 56.3979 705.721 58.2163H710.735C710.658 53.9797 707.39 51.4197 702.008 51.4197C696.923 51.4197 693.765 53.9797 693.765 58.1067C693.765 62.0402 696.994 62.6722 698.147 63.0462L704.348 64.9742C705.643 65.3869 706.094 65.7932 706.094 66.6121C706.094 67.8373 704.644 68.5789 702.234 68.5789C698.966 68.5789 698.444 67.3537 698.147 65.9802Z" fill="white"/>
<path d="M723.952 51.4197C717.822 51.4197 714.071 55.4693 714.071 62.0402C714.071 68.6498 717.822 72.6607 723.984 72.6607C730.075 72.6607 733.897 68.6176 733.897 62.1885C733.897 55.3919 730.223 51.4197 723.952 51.4197ZM723.984 55.6176C726.846 55.6176 728.702 58.1776 728.702 62.1176C728.702 65.8641 726.768 68.4693 723.984 68.4693C721.167 68.4693 719.272 65.8641 719.272 62.0402C719.272 58.2163 721.167 55.6176 723.984 55.6176Z" fill="white"/>
<path d="M737.794 51.755V71.8096H742.995V59.7768C742.995 57.3974 744.665 55.8368 747.191 55.8368C749.415 55.8368 750.53 57.062 750.53 59.4415V71.8096H755.725V58.3646C755.725 53.941 753.275 51.4197 749.009 51.4197C746.295 51.4197 744.478 52.4192 742.995 54.6503V51.755H737.794Z" fill="white"/>
<path d="M122.88 150.184C122.88 153.137 124.188 157.696 129.396 157.696C132.915 157.696 134.9 155.794 135.332 151.97H133.431C132.999 154.704 131.826 156.071 129.415 156.071C126.541 156.071 124.723 153.769 124.723 150.164C124.723 146.463 126.463 144.187 129.254 144.187C131.594 144.187 132.741 145.251 133.154 147.275H135.036C134.462 144.103 132.638 142.562 129.473 142.562C124.208 142.562 122.88 147.172 122.88 150.184Z" fill="white"/>
<path d="M141.391 146.56C138.484 146.56 136.718 148.642 136.718 152.125C136.718 155.613 138.459 157.696 141.41 157.696C144.324 157.696 146.103 155.613 146.103 152.208C146.103 148.623 144.382 146.56 141.391 146.56ZM141.41 148.088C143.273 148.088 144.382 149.61 144.382 152.189C144.382 154.62 143.235 156.168 141.41 156.168C139.574 156.168 138.439 154.646 138.439 152.125C138.439 149.629 139.574 148.088 141.41 148.088Z" fill="white"/>
<path d="M147.884 146.856V157.238H149.547V150.719C149.547 149.216 150.637 148.004 151.984 148.004C153.215 148.004 153.904 148.758 153.904 150.087V157.238H155.567V150.719C155.567 149.216 156.657 148.004 158.004 148.004C159.215 148.004 159.924 148.778 159.924 150.087V157.238H161.587V149.455C161.587 147.591 160.517 146.56 158.577 146.56C157.192 146.56 156.36 146.979 155.393 148.146C154.775 147.037 153.943 146.56 152.596 146.56C151.21 146.56 150.301 147.075 149.412 148.326V146.856H147.884Z" fill="white"/>
<path d="M163.962 161.559H165.625V156.148C166.502 157.219 167.468 157.696 168.815 157.696C171.49 157.696 173.25 155.536 173.25 152.228C173.25 148.739 171.548 146.56 168.796 146.56C167.391 146.56 166.263 147.192 165.49 148.423V146.856H163.962V161.559ZM168.519 148.107C170.343 148.107 171.529 149.713 171.529 152.189C171.529 154.543 170.317 156.148 168.519 156.148C166.779 156.148 165.625 154.562 165.625 152.125C165.625 149.693 166.779 148.107 168.519 148.107Z" fill="white"/>
<path d="M183.287 157.238V146.856H181.643V152.744C181.643 154.859 180.535 156.245 178.814 156.245C177.505 156.245 176.674 155.458 176.674 154.207V146.856H175.03V154.859C175.03 156.587 176.319 157.696 178.337 157.696C179.864 157.696 180.831 157.161 181.804 155.794V157.238H183.287Z" fill="white"/>
<path d="M189.627 146.856H187.925V144.006H186.282V146.856H184.87V148.204H186.282V156.052C186.282 157.096 186.991 157.696 188.28 157.696C188.673 157.696 189.073 157.657 189.627 157.554V156.168C189.408 156.226 189.15 156.245 188.834 156.245C188.119 156.245 187.925 156.052 187.925 155.316V148.204H189.627V146.856Z" fill="white"/>
<path d="M199.979 152.602C199.979 148.836 198.574 146.56 195.364 146.56C192.477 146.56 190.614 148.778 190.614 152.189C190.614 155.594 192.419 157.696 195.326 157.696C197.704 157.696 199.347 156.348 199.76 154.091H198.097C197.646 155.458 196.711 156.168 195.39 156.168C193.469 156.168 192.38 154.723 192.335 152.602H199.979ZM192.38 151.254C192.515 149.332 193.682 148.088 195.345 148.088C197.053 148.088 198.219 149.474 198.219 151.254H192.38Z" fill="white"/>
<path d="M206.749 148.307V146.618C206.472 146.579 206.337 146.56 206.117 146.56C205.047 146.56 204.235 147.192 203.288 148.739V146.856H201.76V157.238H203.423V151.847C203.423 148.939 204.751 148.346 206.749 148.307Z" fill="white"/>
<path d="M215.521 150.661H223.384V149.036H215.521V144.419H223.68V142.8H213.684V157.238H224.035V155.613H215.521V150.661Z" fill="white"/>
<path d="M225.817 146.856V157.238H227.48V151.512C227.48 149.39 228.589 148.004 230.297 148.004C231.599 148.004 232.43 148.797 232.43 150.048V157.238H234.074V149.39C234.074 147.669 232.791 146.56 230.787 146.56C229.246 146.56 228.254 147.153 227.345 148.604V146.856H225.817Z" fill="white"/>
<path d="M240.137 157.696C241.439 157.696 242.354 157.141 243.282 155.832V156.368C243.282 158.741 242.728 160.172 240.395 160.172C239.879 160.172 238.158 160.108 237.881 158.425H236.192C236.373 160.385 237.9 161.559 240.33 161.559C244.275 161.559 244.964 159.14 244.964 155.536V146.856H243.243L243.443 148.365C242.612 147.133 241.6 146.56 240.272 146.56C237.642 146.56 235.857 148.862 235.857 152.228C235.857 155.613 237.778 157.696 240.137 157.696ZM240.453 148.088C242.232 148.088 243.282 149.59 243.282 152.189C243.282 154.665 242.212 156.168 240.472 156.168C238.667 156.168 237.578 154.646 237.578 152.125C237.578 149.629 238.687 148.088 240.453 148.088Z" fill="white"/>
<path d="M249.125 146.856H247.482V157.238H249.125V146.856ZM249.125 142.8H247.463V144.876H249.125V142.8Z" fill="white"/>
<path d="M251.736 146.856V157.238H253.399V151.512C253.399 149.39 254.507 148.004 256.215 148.004C257.517 148.004 258.349 148.797 258.349 150.048V157.238H259.992V149.39C259.992 147.669 258.709 146.56 256.705 146.56C255.165 146.56 254.172 147.153 253.263 148.604V146.856H251.736Z" fill="white"/>
<path d="M271.14 152.602C271.14 148.836 269.735 146.56 266.526 146.56C263.638 146.56 261.775 148.778 261.775 152.189C261.775 155.594 263.58 157.696 266.487 157.696C268.865 157.696 270.509 156.348 270.921 154.091H269.258C268.807 155.458 267.873 156.168 266.551 156.168C264.631 156.168 263.541 154.723 263.496 152.602H271.14ZM263.541 151.254C263.677 149.332 264.843 148.088 266.506 148.088C268.214 148.088 269.381 149.474 269.381 151.254H263.541Z" fill="white"/>
<path d="M281.694 152.602C281.694 148.836 280.289 146.56 277.079 146.56C274.191 146.56 272.329 148.778 272.329 152.189C272.329 155.594 274.133 157.696 277.04 157.696C279.419 157.696 281.062 156.348 281.475 154.091H279.812C279.361 155.458 278.426 156.168 277.105 156.168C275.184 156.168 274.095 154.723 274.05 152.602H281.694ZM274.095 151.254C274.23 149.332 275.397 148.088 277.06 148.088C278.768 148.088 279.934 149.474 279.934 151.254H274.095Z" fill="white"/>
<path d="M288.464 148.307V146.618C288.187 146.579 288.051 146.56 287.832 146.56C286.762 146.56 285.95 147.192 285.003 148.739V146.856H283.475V157.238H285.138V151.847C285.138 148.939 286.466 148.346 288.464 148.307Z" fill="white"/>
<path d="M290.584 155.181V157.238H291.634V157.593C291.634 158.96 291.338 159.36 290.584 159.398V160.153C291.969 160.153 292.666 159.256 292.666 157.554V155.181H290.584Z" fill="white"/>
<path d="M301.953 150.067C301.953 146.521 303.971 144.187 307.019 144.187C309.217 144.187 310.803 145.315 311.196 147.172H313.078C312.562 144.245 310.345 142.562 307.039 142.562C301.496 142.562 300.11 147.275 300.11 150.164C300.11 154.601 302.823 157.696 306.723 157.696C308.682 157.696 310.248 156.961 311.654 155.394L312.111 157.315H313.278V149.61H307.258V151.235H311.654V151.634C311.654 154.207 309.752 156.071 307.116 156.071C302.978 156.071 301.953 152.382 301.953 150.067Z" fill="white"/>
<path d="M315.515 149.926H317.178C317.313 148.662 318.067 148.088 319.614 148.088C321.096 148.088 321.928 148.642 321.928 149.629V150.068C321.928 150.757 321.515 151.061 320.207 151.215C317.178 151.615 315.057 151.847 315.057 154.62C315.057 156.503 316.366 157.696 318.467 157.696C319.769 157.696 320.819 157.238 321.986 156.168C322.108 157.219 322.624 157.696 323.694 157.696C324.029 157.696 324.287 157.657 324.822 157.515V156.264C324.641 156.31 324.564 156.31 324.461 156.31C323.887 156.31 323.571 156.013 323.571 155.497V149.39C323.571 147.553 322.224 146.56 319.672 146.56C317.809 146.56 315.612 147.114 315.515 149.926ZM318.821 156.245C317.532 156.245 316.778 155.632 316.778 154.581C316.778 152.305 320.246 152.879 321.928 152.105V153.969C321.928 154.962 320.781 156.245 318.821 156.245Z" fill="white"/>
<path d="M326.402 146.856V157.238H328.065V150.719C328.065 149.216 329.154 148.004 330.501 148.004C331.732 148.004 332.422 148.758 332.422 150.087V157.238H334.084V150.719C334.084 149.216 335.174 148.004 336.521 148.004C337.732 148.004 338.441 148.778 338.441 150.087V157.238H340.104V149.455C340.104 147.591 339.034 146.56 337.094 146.56C335.709 146.56 334.877 146.979 333.91 148.146C333.292 147.037 332.46 146.56 331.113 146.56C329.727 146.56 328.819 147.075 327.929 148.326V146.856H326.402Z" fill="white"/>
<path d="M351.251 152.602C351.251 148.836 349.846 146.56 346.636 146.56C343.749 146.56 341.886 148.778 341.886 152.189C341.886 155.594 343.691 157.696 346.598 157.696C348.976 157.696 350.62 156.348 351.032 154.091H349.369C348.918 155.458 347.984 156.168 346.662 156.168C344.742 156.168 343.652 154.723 343.607 152.602H351.251ZM343.652 151.254C343.788 149.332 344.954 148.088 346.617 148.088C348.325 148.088 349.492 149.474 349.492 151.254H343.652Z" fill="white"/>
<path d="M358.382 157.238H363.945C367.586 157.238 369.823 154.504 369.823 150.009C369.823 145.528 367.606 142.8 363.945 142.8H358.382V157.238ZM360.219 155.613V144.419H363.629C366.478 144.419 367.986 146.34 367.986 150.029C367.986 153.672 366.478 155.613 363.629 155.613H360.219Z" fill="white"/>
<path d="M380.575 152.602C380.575 148.836 379.17 146.56 375.96 146.56C373.073 146.56 371.21 148.778 371.21 152.189C371.21 155.594 373.015 157.696 375.922 157.696C378.3 157.696 379.944 156.348 380.356 154.091H378.693C378.242 155.458 377.307 156.168 375.986 156.168C374.065 156.168 372.976 154.723 372.931 152.602H380.575ZM372.976 151.254C373.112 149.332 374.278 148.088 375.941 148.088C377.649 148.088 378.816 149.474 378.816 151.254H372.976Z" fill="white"/>
<path d="M383.588 154.149H381.841C381.925 156.542 383.272 157.696 385.979 157.696C388.596 157.696 390.258 156.406 390.258 154.407C390.258 152.86 389.388 152.008 387.326 151.512L385.747 151.138C384.4 150.822 383.826 150.383 383.826 149.648C383.826 148.7 384.677 148.088 386.024 148.088C387.345 148.088 388.061 148.662 388.099 149.752H389.846C389.82 147.707 388.48 146.56 386.082 146.56C383.665 146.56 382.099 147.811 382.099 149.732C382.099 151.357 382.93 152.125 385.386 152.724L386.933 153.098C388.08 153.376 388.538 153.788 388.538 154.543C388.538 155.516 387.564 156.168 386.121 156.168C384.103 156.168 383.723 155.155 383.588 154.149Z" fill="white"/>
<path d="M393.903 146.856H392.26V157.238H393.903V146.856ZM393.903 142.8H392.24V144.876H393.903V142.8Z" fill="white"/>
<path d="M400.2 157.696C401.502 157.696 402.417 157.141 403.346 155.832V156.368C403.346 158.741 402.791 160.172 400.458 160.172C399.942 160.172 398.222 160.108 397.944 158.425H396.256C396.436 160.385 397.964 161.559 400.394 161.559C404.338 161.559 405.028 159.14 405.028 155.536V146.856H403.307L403.507 148.365C402.675 147.133 401.663 146.56 400.336 146.56C397.706 146.56 395.921 148.862 395.921 152.228C395.921 155.613 397.841 157.696 400.2 157.696ZM400.516 148.088C402.295 148.088 403.346 149.59 403.346 152.189C403.346 154.665 402.276 156.168 400.535 156.168C398.731 156.168 397.641 154.646 397.641 152.125C397.641 149.629 398.75 148.088 400.516 148.088Z" fill="white"/>
<path d="M407.404 146.856V157.238H409.066V151.512C409.066 149.39 410.175 148.004 411.883 148.004C413.185 148.004 414.016 148.797 414.016 150.048V157.238H415.66V149.39C415.66 147.669 414.377 146.56 412.373 146.56C410.833 146.56 409.84 147.153 408.931 148.604V146.856H407.404Z" fill="white"/>
<path d="M426.808 152.602C426.808 148.836 425.403 146.56 422.193 146.56C419.306 146.56 417.443 148.778 417.443 152.189C417.443 155.594 419.248 157.696 422.155 157.696C424.533 157.696 426.177 156.348 426.589 154.091H424.926C424.475 155.458 423.541 156.168 422.219 156.168C420.299 156.168 419.209 154.723 419.164 152.602H426.808ZM419.209 151.254C419.345 149.332 420.511 148.088 422.174 148.088C423.882 148.088 425.049 149.474 425.049 151.254H419.209Z" fill="white"/>
<path d="M433.578 148.307V146.618C433.301 146.579 433.166 146.56 432.947 146.56C431.877 146.56 431.065 147.192 430.117 148.739V146.856H428.59V157.238H430.252V151.847C430.252 148.939 431.58 148.346 433.578 148.307Z" fill="white"/>
<path d="M435.698 155.181V157.238H436.749V157.593C436.749 158.96 436.452 159.36 435.698 159.398V160.153C437.084 160.153 437.78 159.256 437.78 157.554V155.181H435.698Z" fill="white"/>
<path d="M448.273 142.8H446.41V157.238H448.273V142.8Z" fill="white"/>
<path d="M457.123 144.419H461.854V142.8H450.529V144.419H455.279V157.238H457.123V144.419Z" fill="white"/>
<path d="M474.174 156.071C470.906 156.071 470.094 154.207 470.094 152.744V152.64H468.347C468.412 156.742 471.557 157.696 474.051 157.696C478.569 157.696 479.697 155.039 479.697 153.279C479.697 151.493 478.589 150.184 476.629 149.648L473.001 148.681C471.261 148.204 470.629 147.649 470.629 146.54C470.629 145.076 471.911 144.103 473.852 144.103C476.153 144.103 477.442 145.154 477.461 147.037H479.201C479.182 144.206 477.242 142.562 473.916 142.562C470.745 142.562 468.786 144.187 468.786 146.798C468.786 148.559 469.714 149.668 471.615 150.164L475.199 151.119C477.023 151.589 477.854 152.324 477.854 153.453C477.854 154.485 477.3 156.071 474.174 156.071Z" fill="white"/>
<path d="M481.792 161.559H483.455V156.148C484.332 157.219 485.299 157.696 486.646 157.696C489.32 157.696 491.08 155.536 491.08 152.228C491.08 148.739 489.378 146.56 486.626 146.56C485.221 146.56 484.093 147.192 483.32 148.423V146.856H481.792V161.559ZM486.349 148.107C488.173 148.107 489.359 149.713 489.359 152.189C489.359 154.543 488.147 156.148 486.349 156.148C484.609 156.148 483.455 154.562 483.455 152.125C483.455 149.693 484.609 148.107 486.349 148.107Z" fill="white"/>
<path d="M501.633 152.602C501.633 148.836 500.228 146.56 497.018 146.56C494.13 146.56 492.268 148.778 492.268 152.189C492.268 155.594 494.072 157.696 496.979 157.696C499.357 157.696 501.001 156.348 501.413 154.091H499.751C499.299 155.458 498.365 156.168 497.044 156.168C495.123 156.168 494.034 154.723 493.988 152.602H501.633ZM494.034 151.254C494.169 149.332 495.336 148.088 496.998 148.088C498.706 148.088 499.873 149.474 499.873 151.254H494.034Z" fill="white"/>
<path d="M511.535 150.345C511.335 147.869 509.814 146.56 507.436 146.56C504.645 146.56 502.821 148.778 502.821 152.228C502.821 155.574 504.606 157.696 507.416 157.696C509.891 157.696 511.458 156.206 511.651 153.672H509.988C509.711 155.336 508.86 156.168 507.455 156.168C505.631 156.168 504.542 154.685 504.542 152.228C504.542 149.629 505.612 148.088 507.416 148.088C508.802 148.088 509.672 148.9 509.872 150.345H511.535Z" fill="white"/>
<path d="M515.218 146.856H513.575V157.238H515.218V146.856ZM515.218 142.8H513.555V144.876H515.218V142.8Z" fill="white"/>
<path d="M517.693 149.926H519.356C519.491 148.662 520.245 148.088 521.792 148.088C523.275 148.088 524.106 148.642 524.106 149.629V150.068C524.106 150.757 523.694 151.061 522.385 151.215C519.356 151.615 517.235 151.847 517.235 154.62C517.235 156.503 518.544 157.696 520.645 157.696C521.947 157.696 522.997 157.238 524.164 156.168C524.287 157.219 524.802 157.696 525.872 157.696C526.207 157.696 526.465 157.657 527 157.515V156.264C526.82 156.31 526.742 156.31 526.639 156.31C526.065 156.31 525.75 156.013 525.75 155.497V149.39C525.75 147.553 524.403 146.56 521.85 146.56C519.988 146.56 517.79 147.114 517.693 149.926ZM520.999 156.245C519.71 156.245 518.956 155.632 518.956 154.581C518.956 152.305 522.424 152.879 524.106 152.105V153.969C524.106 154.962 522.959 156.245 520.999 156.245Z" fill="white"/>
<path d="M530.243 142.8H528.58V157.238H530.243V142.8Z" fill="white"/>
<path d="M534.602 146.856H532.959V157.238H534.602V146.856ZM534.602 142.8H532.939V144.876H534.602V142.8Z" fill="white"/>
<path d="M538.444 154.149H536.697C536.781 156.542 538.128 157.696 540.835 157.696C543.452 157.696 545.115 156.406 545.115 154.407C545.115 152.86 544.244 152.008 542.182 151.512L540.603 151.138C539.256 150.822 538.682 150.383 538.682 149.648C538.682 148.7 539.533 148.088 540.88 148.088C542.201 148.088 542.917 148.662 542.955 149.752H544.702C544.676 147.707 543.336 146.56 540.938 146.56C538.521 146.56 536.955 147.811 536.955 149.732C536.955 151.357 537.786 152.125 540.242 152.724L541.789 153.098C542.936 153.376 543.394 153.788 543.394 154.543C543.394 155.516 542.42 156.168 540.977 156.168C538.959 156.168 538.579 155.155 538.444 154.149Z" fill="white"/>
<path d="M550.938 146.856H549.236V144.006H547.593V146.856H546.181V148.204H547.593V156.052C547.593 157.096 548.302 157.696 549.591 157.696C549.984 157.696 550.384 157.657 550.938 157.554V156.168C550.719 156.226 550.461 156.245 550.145 156.245C549.43 156.245 549.236 156.052 549.236 155.316V148.204H550.938V146.856Z" fill="white"/>
<path d="M553.053 155.181V157.238H554.104V157.593C554.104 158.96 553.807 159.36 553.053 159.398V160.153C554.439 160.153 555.135 159.256 555.135 157.554V155.181H553.053Z" fill="white"/>
<path d="M563.372 157.238H568.934C572.576 157.238 574.812 154.504 574.812 150.009C574.812 145.528 572.595 142.8 568.934 142.8H563.372V157.238ZM565.209 155.613V144.419H568.619C571.467 144.419 572.976 146.34 572.976 150.029C572.976 153.672 571.467 155.613 568.619 155.613H565.209Z" fill="white"/>
<path d="M585.565 152.602C585.565 148.836 584.16 146.56 580.95 146.56C578.063 146.56 576.2 148.778 576.2 152.189C576.2 155.594 578.005 157.696 580.911 157.696C583.29 157.696 584.933 156.348 585.346 154.091H583.683C583.232 155.458 582.297 156.168 580.976 156.168C579.055 156.168 577.966 154.723 577.921 152.602H585.565ZM577.966 151.254C578.101 149.332 579.268 148.088 580.931 148.088C582.639 148.088 583.805 149.474 583.805 151.254H577.966Z" fill="white"/>
<path d="M591.806 157.238L595.783 146.856H593.921L590.994 155.278L588.216 146.856H586.36L590.002 157.238H591.806Z" fill="white"/>
<path d="M610.715 150.248C610.715 145.592 607.963 142.562 603.722 142.562C599.584 142.562 596.774 145.612 596.774 150.126C596.774 154.646 599.584 157.696 603.741 157.696C608.06 157.696 610.715 154.407 610.715 150.248ZM603.722 144.187C606.854 144.187 608.872 146.56 608.872 150.203C608.872 153.691 606.79 156.071 603.741 156.071C600.673 156.071 598.617 153.691 598.617 150.126C598.617 146.56 600.673 144.187 603.722 144.187Z" fill="white"/>
<path d="M613.921 154.149H612.175C612.259 156.542 613.606 157.696 616.313 157.696C618.929 157.696 620.592 156.406 620.592 154.407C620.592 152.86 619.722 152.008 617.66 151.512L616.081 151.138C614.734 150.822 614.16 150.383 614.16 149.648C614.16 148.7 615.011 148.088 616.358 148.088C617.679 148.088 618.394 148.662 618.433 149.752H620.18C620.154 147.707 618.813 146.56 616.416 146.56C613.999 146.56 612.433 147.811 612.433 149.732C612.433 151.357 613.264 152.125 615.72 152.724L617.267 153.098C618.414 153.376 618.871 153.788 618.871 154.543C618.871 155.516 617.898 156.168 616.454 156.168C614.437 156.168 614.057 155.155 613.921 154.149Z" fill="white"/>
<path d="M622.452 161.559H624.115V156.148C624.991 157.219 625.958 157.696 627.305 157.696C629.98 157.696 631.739 155.536 631.739 152.228C631.739 148.739 630.038 146.56 627.286 146.56C625.881 146.56 624.753 147.192 623.979 148.423V146.856H622.452V161.559ZM627.009 148.107C628.833 148.107 630.019 149.713 630.019 152.189C630.019 154.543 628.807 156.148 627.009 156.148C625.268 156.148 624.115 154.562 624.115 152.125C624.115 149.693 625.268 148.107 627.009 148.107Z" fill="white"/>
<path d="M638.335 149.926H639.998C640.133 148.662 640.887 148.088 642.434 148.088C643.916 148.088 644.748 148.642 644.748 149.629V150.068C644.748 150.757 644.335 151.061 643.027 151.215C639.998 151.615 637.877 151.847 637.877 154.62C637.877 156.503 639.185 157.696 641.287 157.696C642.589 157.696 643.639 157.238 644.806 156.168C644.928 157.219 645.444 157.696 646.514 157.696C646.849 157.696 647.107 157.657 647.642 157.515V156.264C647.461 156.31 647.384 156.31 647.281 156.31C646.707 156.31 646.391 156.013 646.391 155.497V149.39C646.391 147.553 645.044 146.56 642.492 146.56C640.629 146.56 638.431 147.114 638.335 149.926ZM641.641 156.245C640.352 156.245 639.598 155.632 639.598 154.581C639.598 152.305 643.065 152.879 644.748 152.105V153.969C644.748 154.962 643.6 156.245 641.641 156.245Z" fill="white"/>
<path d="M649.221 146.856V157.238H650.884V151.512C650.884 149.39 651.993 148.004 653.701 148.004C655.003 148.004 655.834 148.797 655.834 150.048V157.238H657.478V149.39C657.478 147.669 656.195 146.56 654.191 146.56C652.65 146.56 651.658 147.153 650.749 148.604V146.856H649.221Z" fill="white"/>
<path d="M668.549 142.8H666.905V148.165C666.209 147.114 665.101 146.56 663.715 146.56C661.027 146.56 659.261 148.72 659.261 152.028C659.261 155.536 660.982 157.696 663.779 157.696C665.204 157.696 666.19 157.161 667.086 155.871V157.238H668.549V142.8ZM663.992 148.107C665.777 148.107 666.905 149.693 666.905 152.17C666.905 154.562 665.758 156.148 664.011 156.148C662.194 156.148 660.982 154.543 660.982 152.125C660.982 149.713 662.194 148.107 663.992 148.107Z" fill="white"/>
<path d="M676.272 157.238H681.834C685.476 157.238 687.712 154.504 687.712 150.009C687.712 145.528 685.495 142.8 681.834 142.8H676.272V157.238ZM678.109 155.613V144.419H681.518C684.367 144.419 685.875 146.34 685.875 150.029C685.875 153.672 684.367 155.613 681.518 155.613H678.109Z" fill="white"/>
<path d="M698.465 152.602C698.465 148.836 697.06 146.56 693.85 146.56C690.962 146.56 689.1 148.778 689.1 152.189C689.1 155.594 690.904 157.696 693.811 157.696C696.19 157.696 697.833 156.348 698.246 154.091H696.583C696.132 155.458 695.197 156.168 693.876 156.168C691.955 156.168 690.866 154.723 690.821 152.602H698.465ZM690.866 151.254C691.001 149.332 692.168 148.088 693.831 148.088C695.539 148.088 696.705 149.474 696.705 151.254H690.866Z" fill="white"/>
<path d="M704.706 157.238L708.683 146.856H706.82L703.894 155.278L701.116 146.856H699.26L702.902 157.238H704.706Z" fill="white"/>
<path d="M715.655 156.071C712.387 156.071 711.575 154.207 711.575 152.744V152.64H709.828C709.893 156.742 713.038 157.696 715.533 157.696C720.051 157.696 721.179 155.039 721.179 153.279C721.179 151.493 720.07 150.184 718.111 149.648L714.482 148.681C712.742 148.204 712.11 147.649 712.11 146.54C712.11 145.076 713.393 144.103 715.333 144.103C717.634 144.103 718.923 145.154 718.942 147.037H720.682C720.663 144.206 718.723 142.562 715.397 142.562C712.226 142.562 710.267 144.187 710.267 146.798C710.267 148.559 711.195 149.668 713.096 150.164L716.68 151.119C718.504 151.589 719.335 152.324 719.335 153.453C719.335 154.485 718.781 156.071 715.655 156.071Z" fill="white"/>
<path d="M732.046 152.602C732.046 148.836 730.641 146.56 727.431 146.56C724.543 146.56 722.681 148.778 722.681 152.189C722.681 155.594 724.485 157.696 727.392 157.696C729.771 157.696 731.414 156.348 731.827 154.091H730.164C729.712 155.458 728.778 156.168 727.457 156.168C725.536 156.168 724.447 154.723 724.402 152.602H732.046ZM724.447 151.254C724.582 149.332 725.749 148.088 727.412 148.088C729.12 148.088 730.286 149.474 730.286 151.254H724.447Z" fill="white"/>
<path d="M741.948 150.345C741.748 147.869 740.227 146.56 737.849 146.56C735.058 146.56 733.234 148.778 733.234 152.228C733.234 155.574 735.019 157.696 737.83 157.696C740.305 157.696 741.871 156.206 742.064 153.672H740.401C740.124 155.336 739.273 156.168 737.868 156.168C736.044 156.168 734.955 154.685 734.955 152.228C734.955 149.629 736.025 148.088 737.83 148.088C739.215 148.088 740.085 148.9 740.285 150.345H741.948Z" fill="white"/>
<path d="M757.394 150.248C757.394 145.592 754.642 142.562 750.401 142.562C746.263 142.562 743.453 145.612 743.453 150.126C743.453 154.646 746.263 157.696 750.42 157.696C754.738 157.696 757.394 154.407 757.394 150.248ZM750.401 144.187C753.533 144.187 755.551 146.56 755.551 150.203C755.551 153.691 753.469 156.071 750.42 156.071C747.352 156.071 745.296 153.691 745.296 150.126C745.296 146.56 747.352 144.187 750.401 144.187Z" fill="white"/>
<path d="M759.369 161.559H761.032V156.148C761.909 157.219 762.875 157.696 764.222 157.696C766.897 157.696 768.657 155.536 768.657 152.228C768.657 148.739 766.955 146.56 764.203 146.56C762.798 146.56 761.67 147.192 760.897 148.423V146.856H759.369V161.559ZM763.926 148.107C765.75 148.107 766.936 149.713 766.936 152.189C766.936 154.543 765.724 156.148 763.926 156.148C762.186 156.148 761.032 154.562 761.032 152.125C761.032 149.693 762.186 148.107 763.926 148.107Z" fill="white"/>
<path d="M771.668 154.149H769.922C770.005 156.542 771.353 157.696 774.06 157.696C776.676 157.696 778.339 156.406 778.339 154.407C778.339 152.86 777.469 152.008 775.407 151.512L773.828 151.138C772.48 150.822 771.907 150.383 771.907 149.648C771.907 148.7 772.758 148.088 774.105 148.088C775.426 148.088 776.141 148.662 776.18 149.751H777.927C777.901 147.707 776.56 146.56 774.163 146.56C771.746 146.56 770.18 147.811 770.18 149.732C770.18 151.357 771.011 152.124 773.467 152.724L775.013 153.098C776.161 153.375 776.618 153.788 776.618 154.543C776.618 155.516 775.645 156.168 774.201 156.168C772.184 156.168 771.804 155.155 771.668 154.149Z" fill="white"/>
<path d="M790.737 156.071C787.469 156.071 786.657 154.207 786.657 152.744V152.64H784.91C784.975 156.742 788.12 157.696 790.614 157.696C795.133 157.696 796.26 155.039 796.26 153.279C796.26 151.493 795.152 150.184 793.192 149.648L789.564 148.681C787.824 148.204 787.192 147.649 787.192 146.54C787.192 145.076 788.475 144.103 790.415 144.103C792.716 144.103 794.005 145.154 794.024 147.037H795.764C795.745 144.206 793.805 142.562 790.479 142.562C787.308 142.562 785.349 144.187 785.349 146.798C785.349 148.559 786.277 149.668 788.178 150.164L791.762 151.119C793.586 151.589 794.417 152.324 794.417 153.453C794.417 154.485 793.863 156.071 790.737 156.071Z" fill="white"/>
<path d="M798.355 161.559H800.018V156.148C800.895 157.219 801.862 157.696 803.209 157.696C805.884 157.696 807.643 155.536 807.643 152.228C807.643 148.739 805.942 146.56 803.189 146.56C801.784 146.56 800.656 147.192 799.883 148.423V146.856H798.355V161.559ZM802.912 148.107C804.736 148.107 805.922 149.713 805.922 152.189C805.922 154.543 804.71 156.148 802.912 156.148C801.172 156.148 800.018 154.562 800.018 152.125C800.018 149.693 801.172 148.107 802.912 148.107Z" fill="white"/>
<path d="M818.196 152.602C818.196 148.836 816.791 146.56 813.581 146.56C810.693 146.56 808.831 148.778 808.831 152.189C808.831 155.594 810.635 157.696 813.542 157.696C815.921 157.696 817.564 156.348 817.977 154.091H816.314C815.863 155.458 814.928 156.168 813.607 156.168C811.686 156.168 810.597 154.723 810.552 152.602H818.196ZM810.597 151.254C810.732 149.332 811.899 148.088 813.562 148.088C815.27 148.088 816.436 149.474 816.436 151.254H810.597Z" fill="white"/>
<path d="M828.098 150.345C827.898 147.869 826.377 146.56 823.999 146.56C821.208 146.56 819.384 148.778 819.384 152.228C819.384 155.574 821.169 157.696 823.98 157.696C826.455 157.696 828.021 156.206 828.214 153.672H826.551C826.274 155.336 825.423 156.168 824.018 156.168C822.194 156.168 821.105 154.685 821.105 152.228C821.105 149.629 822.175 148.088 823.98 148.088C825.365 148.088 826.235 148.9 826.435 150.345H828.098Z" fill="white"/>
<path d="M831.781 146.856H830.138V157.238H831.781V146.856ZM831.781 142.8H830.118V144.876H831.781V142.8Z" fill="white"/>
<path d="M834.256 149.926H835.919C836.054 148.662 836.808 148.088 838.355 148.088C839.838 148.088 840.669 148.642 840.669 149.629V150.068C840.669 150.757 840.257 151.061 838.948 151.215C835.919 151.615 833.799 151.847 833.799 154.62C833.799 156.503 835.107 157.696 837.208 157.696C838.51 157.696 839.561 157.238 840.727 156.168C840.85 157.219 841.365 157.696 842.435 157.696C842.77 157.696 843.028 157.657 843.563 157.515V156.264C843.383 156.31 843.305 156.31 843.202 156.31C842.629 156.31 842.313 156.013 842.313 155.497V149.39C842.313 147.553 840.966 146.56 838.413 146.56C836.551 146.56 834.353 147.114 834.256 149.926ZM837.563 156.245C836.274 156.245 835.519 155.632 835.519 154.581C835.519 152.305 838.987 152.879 840.669 152.105V153.969C840.669 154.962 839.522 156.245 837.563 156.245Z" fill="white"/>
<path d="M846.806 142.8H845.143V157.238H846.806V142.8Z" fill="white"/>
<path d="M851.165 146.856H849.522V157.238H851.165V146.856ZM851.165 142.8H849.503V144.876H851.165V142.8Z" fill="white"/>
<path d="M855.007 154.149H853.26C853.344 156.542 854.691 157.696 857.398 157.696C860.015 157.696 861.678 156.406 861.678 154.407C861.678 152.86 860.808 152.008 858.745 151.512L857.166 151.138C855.819 150.822 855.245 150.383 855.245 149.648C855.245 148.7 856.096 148.088 857.443 148.088C858.764 148.088 859.48 148.662 859.518 149.752H861.265C861.239 147.707 859.899 146.56 857.501 146.56C855.084 146.56 853.518 147.811 853.518 149.732C853.518 151.357 854.349 152.125 856.805 152.724L858.352 153.098C859.499 153.376 859.957 153.788 859.957 154.543C859.957 155.516 858.984 156.168 857.54 156.168C855.522 156.168 855.142 155.155 855.007 154.149Z" fill="white"/>
<path d="M867.501 146.856H865.799V144.006H864.156V146.856H862.744V148.204H864.156V156.052C864.156 157.096 864.865 157.696 866.154 157.696C866.547 157.696 866.947 157.657 867.501 157.554V156.168C867.282 156.226 867.024 156.245 866.708 156.245C865.993 156.245 865.799 156.052 865.799 155.316V148.204H867.501V146.856Z" fill="white"/>
<defs>
<linearGradient id="paint0_linear_1_348" x1="0" y1="91" x2="990" y2="91" gradientUnits="userSpaceOnUse">
<stop stop-color="#000807"/>
<stop offset="0.5" stop-color="#001D55" stop-opacity="0"/>
<stop offset="1" stop-color="#000807"/>
</linearGradient>
</defs>
</svg>
